<svg width="15" height="15" viewBox="0 0 15 15" fill="none" xmlns="http://www.w3.org/2000/svg">
<path d="M11.8996 1.41904C12.2902 1.02851 12.9233 1.02851 13.3139 1.41904C13.7044 1.80956 13.7044 2.44272 13.3139 2.83325L2.70726 13.4399C2.31673 13.8304 1.68357 13.8304 1.29304 13.4399C0.90252 13.0493 0.90252 12.4162 1.29304 12.0256L11.8996 1.41904Z" fill="#525352"/>
<path d="M1.34569 2.72888C0.943135 2.35077 0.923326 1.71791 1.30144 1.31536C1.67956 0.91281 2.31241 0.893 2.71496 1.27112L13.6482 11.5407C14.0508 11.9188 14.0706 12.5517 13.6925 12.9542C13.3143 13.3568 12.6815 13.3766 12.2789 12.9985L1.34569 2.72888Z" fill="#525352"/>
</svg>
