<svg width="17" height="14" viewBox="0 0 17 14" fill="none" xmlns="http://www.w3.org/2000/svg">
<path d="M16 0C16.5523 0 17 0.447715 17 1C17 1.55228 16.5523 2 16 2H1C0.447715 2 0 1.55228 0 1C0 0.447715 0.447715 0 1 0H16Z" fill="#525352"/>
<path d="M13 6C13.5523 6 14 6.44772 14 7C14 7.55228 13.5523 8 13 8H4C3.44772 8 3 7.55228 3 7C3 6.44772 3.44772 6 4 6H13Z" fill="#525352"/>
<path d="M16 12C16.5523 12 17 12.4477 17 13C17 13.5523 16.5523 14 16 14H1C0.447715 14 0 13.5523 0 13C0 12.4477 0.447715 12 1 12H16Z" fill="#525352"/>
</svg>
