<svg width="21" height="21" viewBox="0 0 21 21" fill="none" xmlns="http://www.w3.org/2000/svg">
<g filter="url(#filter0_n_3002_1076)">
<g filter="url(#filter1_n_3002_1076)">
<path d="M3.76892 14.6604C-1.38706 10.4207 0.562865 6.31989 0.110403 0.674299C0.0895794 0.414476 0.311883 0.198302 0.56765 0.248551C3.6413 0.852418 8.83086 3.27579 9.94433 9.21256C10.4472 11.8937 10.1918 15.5689 10.187 20.1243C10.1869 20.255 10.019 20.3093 9.94106 20.2043C9.00394 18.942 8.67614 18.6955 3.76892 14.6604Z" fill="url(#paint0_linear_3002_1076)"/>
<path d="M3.45544 14.2139C-0.964697 10.5603 0.511898 5.43865 0.333183 0.867798C0.323238 0.613429 0.543087 0.408146 0.79242 0.459484C3.67373 1.05274 8.74306 3.55779 9.77333 9.05093C10.2372 11.5243 10.2039 15.7955 10.2108 20.0501C10.211 20.1839 10.0348 20.2385 9.95618 20.1302C8.95041 18.7453 7.6722 17.6994 3.45544 14.2139Z" fill="url(#paint1_linear_3002_1076)"/>
<g opacity="0.6">
<path d="M10.2128 20.1378L10.2005 15.2588C10.1989 14.6173 10.0614 13.9758 9.75016 13.4148C6.06394 6.77134 0.334983 8.20365 0.334983 8.20365C0.334983 8.20365 0.417658 11.8493 3.39035 14.2005C5.09009 15.5449 5.59453 16.115 7.29389 17.4599C8.64777 18.5313 9.52751 19.641 9.94012 20.2215C10.0198 20.3336 10.2132 20.2753 10.2128 20.1378Z" fill="url(#paint2_linear_3002_1076)"/>
<path d="M10.2128 20.1378L10.2005 15.2588C10.1989 14.6173 10.0614 13.9758 9.75016 13.4148C6.06394 6.77134 0.334983 8.20365 0.334983 8.20365C0.334983 8.20365 0.417658 11.8493 3.39035 14.2005C5.09009 15.5449 5.59453 16.115 7.29389 17.4599C8.64777 18.5313 9.52751 19.641 9.94012 20.2215C10.0198 20.3336 10.2132 20.2753 10.2128 20.1378Z" fill="url(#paint3_radial_3002_1076)"/>
</g>
<path d="M10.0366 14.0917C8.43198 10.6025 4.93369 7.57745 0.944118 8.13721C0.877365 8.14569 0.806954 8.12761 0.741589 8.13784C0.806972 8.12769 0.8775 8.14609 0.94427 8.13773C4.8618 7.68497 8.38028 10.6974 9.81636 14.1963C9.90272 14.3883 10.1288 14.8704 10.1288 14.8704L10.0663 14.4646C10.0663 14.4646 10.132 14.2828 10.0366 14.0917Z" fill="url(#paint4_linear_3002_1076)"/>
<path d="M10.1013 14.0431C8.4966 10.5539 4.99915 7.5748 1.00958 8.13456C0.942825 8.14304 0.872414 8.12496 0.807049 8.1352C0.872431 8.12504 0.94296 8.14344 1.00973 8.13508C5.01211 7.58455 8.4449 10.6488 9.88098 14.1477C9.96735 14.3397 10.1935 14.8218 10.1935 14.8218L10.131 14.416C10.131 14.416 10.1967 14.2342 10.1013 14.0431Z" fill="#3F3F3F"/>
</g>
<path d="M0.597656 0.249912C3.67127 0.853813 8.86104 3.27731 9.97461 9.21378C10.4765 11.8898 10.2961 15.7097 10.2949 20.2626C10.2947 20.3957 10.122 20.4477 10.0469 20.3378C10.0102 20.2841 9.97266 20.2332 9.9375 20.1825C9.72548 19.8873 9.40228 19.4692 8.9668 18.9941C8.20626 18.2244 6.90979 17.1645 3.82422 14.6874C-1.40869 10.4862 0.589287 6.32481 0.139648 0.675694C0.119137 0.415975 0.341975 0.19968 0.597656 0.249912Z" fill="url(#paint5_radial_3002_1076)"/>
<g filter="url(#filter2_n_3002_1076)">
<path d="M16.9587 14.5746C21.9969 10.6638 20.467 6.57599 20.6627 0.55249C20.6692 0.353145 20.5315 0.175794 20.3321 0.178301C18.0911 0.206475 11.6606 3.25205 10.9469 9.25691C10.6095 12.0959 10.4906 15.6117 10.5995 20.1725C10.6024 20.2957 10.7548 20.3502 10.8338 20.2556C11.9618 18.9062 12.1276 18.3247 16.9587 14.5746Z" fill="url(#paint6_radial_3002_1076)"/>
<path d="M16.9587 14.5746C21.9969 10.6638 20.467 6.57599 20.6627 0.55249C20.6692 0.353145 20.5315 0.175794 20.3321 0.178301C18.0911 0.206475 11.6606 3.25205 10.9469 9.25691C10.6095 12.0959 10.4906 15.6117 10.5995 20.1725C10.6024 20.2957 10.7548 20.3502 10.8338 20.2556C11.9618 18.9062 12.1276 18.3247 16.9587 14.5746Z" fill="url(#paint7_radial_3002_1076)"/>
<path d="M17.3961 14.06C21.8163 10.4064 20.3397 5.28479 20.5184 0.71394C20.5283 0.459571 20.3085 0.254288 20.0591 0.305625C17.1778 0.898883 12.1085 3.40393 11.0782 8.89707C10.6143 11.3704 10.6477 15.6417 10.6408 19.8963C10.6406 20.0301 10.8168 20.0846 10.8954 19.9764C11.9011 18.5914 13.1794 17.5455 17.3961 14.06Z" fill="url(#paint8_linear_3002_1076)"/>
<path d="M10.6386 20.0303L10.6511 15.105C10.6527 14.4634 10.7901 13.822 11.1014 13.261C14.7876 6.61747 20.5166 8.04979 20.5166 8.04979C20.5166 8.04979 20.4039 11.7789 17.4312 14.13C15.7315 15.4744 15.3593 15.7636 13.6477 17.2104C12.2859 18.3616 11.3316 19.5387 10.8989 20.1151C10.8186 20.2221 10.6383 20.1641 10.6386 20.0303Z" fill="url(#paint9_linear_3002_1076)"/>
<path d="M10.6386 20.0303L10.6511 15.105C10.6527 14.4634 10.7901 13.822 11.1014 13.261C14.7876 6.61747 20.5166 8.04979 20.5166 8.04979C20.5166 8.04979 20.4039 11.7789 17.4312 14.13C15.7315 15.4744 15.3593 15.7636 13.6477 17.2104C12.2859 18.3616 11.3316 19.5387 10.8989 20.1151C10.8186 20.2221 10.6383 20.1641 10.6386 20.0303Z" fill="url(#paint10_radial_3002_1076)"/>
<path d="M10.8188 13.9379C12.4235 10.4486 15.9218 7.42358 19.9114 7.98335C19.9781 7.99183 20.0485 7.97375 20.1139 7.98398C20.0485 7.97383 19.978 7.99222 19.9112 7.98387C15.9937 7.53111 12.4752 10.5436 11.0391 14.0424C10.9527 14.2344 10.7266 14.7165 10.7266 14.7165L10.7891 14.3107C10.7891 14.3107 10.7234 14.1289 10.8188 13.9379Z" fill="url(#paint11_linear_3002_1076)"/>
<path d="M10.8118 13.8497C12.4165 10.3604 15.8531 7.42193 19.8426 7.9817C19.9094 7.99018 19.9798 7.9721 20.0452 7.98233C19.9798 7.97218 19.9092 7.99057 19.8425 7.98222C15.8401 7.43168 12.4073 10.496 10.9712 13.9948C10.8849 14.1868 10.6587 14.6689 10.6587 14.6689L10.6587 14.3051C10.6587 14.3051 10.7164 14.0408 10.8118 13.8497Z" fill="url(#paint12_linear_3002_1076)"/>
</g>
</g>
<defs>
<filter id="filter0_n_3002_1076" x="0.107422" y="0.178276" width="20.6289" height="20.2191" filterUnits="userSpaceOnUse" color-interpolation-filters="sRGB">
<feFlood flood-opacity="0" result="BackgroundImageFix"/>
<feBlend mode="normal" in="SourceGraphic" in2="BackgroundImageFix" result="shape"/>
<feTurbulence type="fractalNoise" baseFrequency="37.003162384033203 37.003162384033203" stitchTiles="stitch" numOctaves="3" result="noise" seed="6270" />
<feColorMatrix in="noise" type="luminanceToAlpha" result="alphaNoise" />
<feComponentTransfer in="alphaNoise" result="coloredNoise1">
<feFuncA type="discrete" tableValues="0 0 0 0 1 1 1 1 1 1 1 1 1 1 1 1 1 1 1 1 1 1 1 1 1 1 1 1 1 1 1 1 1 1 1 1 1 1 1 1 1 1 1 1 1 1 1 0 0 0 0 0 0 0 0 0 0 0 0 0 0 0 0 0 0 0 0 0 0 0 0 0 0 0 0 0 0 0 0 0 0 0 0 0 0 0 0 0 0 0 0 0 0 0 0 0 0 0 0 0 "/>
</feComponentTransfer>
<feComposite operator="in" in2="shape" in="coloredNoise1" result="noise1Clipped" />
<feFlood flood-color="rgba(0, 0, 0, 0.25)" result="color1Flood" />
<feComposite operator="in" in2="noise1Clipped" in="color1Flood" result="color1" />
<feMerge result="effect1_noise_3002_1076">
<feMergeNode in="shape" />
<feMergeNode in="color1" />
</feMerge>
</filter>
<filter id="filter1_n_3002_1076" x="0.107422" y="0.241245" width="10.1484" height="20.0394" filterUnits="userSpaceOnUse" color-interpolation-filters="sRGB">
<feFlood flood-opacity="0" result="BackgroundImageFix"/>
<feBlend mode="normal" in="SourceGraphic" in2="BackgroundImageFix" result="shape"/>
<feTurbulence type="fractalNoise" baseFrequency="24.668773651123047 24.668773651123047" stitchTiles="stitch" numOctaves="3" result="noise" seed="5092" />
<feColorMatrix in="noise" type="luminanceToAlpha" result="alphaNoise" />
<feComponentTransfer in="alphaNoise" result="coloredNoise1">
<feFuncA type="discrete" tableValues="1 1 1 1 1 1 1 1 1 1 1 1 1 1 1 1 1 1 1 1 1 1 1 1 1 1 1 1 1 1 1 1 1 1 1 1 1 1 1 1 1 1 1 1 1 1 1 1 1 1 1 0 0 0 0 0 0 0 0 0 0 0 0 0 0 0 0 0 0 0 0 0 0 0 0 0 0 0 0 0 0 0 0 0 0 0 0 0 0 0 0 0 0 0 0 0 0 0 0 0 "/>
</feComponentTransfer>
<feComposite operator="in" in2="shape" in="coloredNoise1" result="noise1Clipped" />
<feFlood flood-color="rgba(131, 123, 123, 0.25)" result="color1Flood" />
<feComposite operator="in" in2="noise1Clipped" in="color1Flood" result="color1" />
<feMerge result="effect1_noise_3002_1076">
<feMergeNode in="shape" />
<feMergeNode in="color1" />
</feMerge>
</filter>
<filter id="filter2_n_3002_1076" x="10.5605" y="0.178276" width="10.1758" height="20.1253" filterUnits="userSpaceOnUse" color-interpolation-filters="sRGB">
<feFlood flood-opacity="0" result="BackgroundImageFix"/>
<feBlend mode="normal" in="SourceGraphic" in2="BackgroundImageFix" result="shape"/>
<feTurbulence type="fractalNoise" baseFrequency="24.668773651123047 24.668773651123047" stitchTiles="stitch" numOctaves="3" result="noise" seed="5092" />
<feColorMatrix in="noise" type="luminanceToAlpha" result="alphaNoise" />
<feComponentTransfer in="alphaNoise" result="coloredNoise1">
<feFuncA type="discrete" tableValues="1 1 1 1 1 1 1 1 1 1 1 1 1 1 1 1 1 1 1 1 1 1 1 1 1 1 1 1 1 1 1 1 1 1 1 1 1 1 1 1 1 1 1 1 1 1 1 1 1 1 1 0 0 0 0 0 0 0 0 0 0 0 0 0 0 0 0 0 0 0 0 0 0 0 0 0 0 0 0 0 0 0 0 0 0 0 0 0 0 0 0 0 0 0 0 0 0 0 0 0 "/>
</feComponentTransfer>
<feComposite operator="in" in2="shape" in="coloredNoise1" result="noise1Clipped" />
<feFlood flood-color="rgba(131, 123, 123, 0.25)" result="color1Flood" />
<feComposite operator="in" in2="noise1Clipped" in="color1Flood" result="color1" />
<feMerge result="effect1_noise_3002_1076">
<feMergeNode in="shape" />
<feMergeNode in="color1" />
</feMerge>
</filter>
<linearGradient id="paint0_linear_3002_1076" x1="0.481637" y1="-0.312477" x2="10.6835" y2="21.1046" gradientUnits="userSpaceOnUse">
<stop stop-color="#F0F0F0"/>
<stop offset="1" stop-color="#686868"/>
</linearGradient>
<linearGradient id="paint1_linear_3002_1076" x1="-1.23114" y1="1.55358" x2="10.0622" y2="18.405" gradientUnits="userSpaceOnUse">
<stop stop-color="#F2F2F2"/>
<stop offset="0.226398" stop-color="#D4D4D4"/>
<stop offset="0.730106" stop-color="#404040"/>
<stop offset="1" stop-color="#343434"/>
</linearGradient>
<linearGradient id="paint2_linear_3002_1076" x1="2.24068" y1="7.86289" x2="10.9306" y2="18.9853" gradientUnits="userSpaceOnUse">
<stop stop-color="#D0CFCF"/>
<stop offset="0.270601" stop-color="#D6D6D6"/>
<stop offset="1" stop-color="#888888"/>
</linearGradient>
<radialGradient id="paint3_radial_3002_1076" cx="0" cy="0" r="1" gradientUnits="userSpaceOnUse" gradientTransform="translate(1.94483 8.58074) rotate(84.8056) scale(10.4474 7.79521)">
<stop stop-color="#DBDBDB"/>
<stop offset="1" stop-color="#CBCBCA" stop-opacity="0"/>
</radialGradient>
<linearGradient id="paint4_linear_3002_1076" x1="4.99783" y1="8.61021" x2="5.5743" y2="15.0491" gradientUnits="userSpaceOnUse">
<stop stop-color="#C8C8C8"/>
<stop offset="1" stop-color="#828282"/>
</linearGradient>
<radialGradient id="paint5_radial_3002_1076" cx="0" cy="0" r="1" gradientTransform="matrix(4.39158 10.2018 -8.64808 3.72262 0.866238 6.89263)" gradientUnits="userSpaceOnUse">
<stop stop-color="white"/>
<stop offset="1" stop-color="#A5A5A5" stop-opacity="0"/>
</radialGradient>
<radialGradient id="paint6_radial_3002_1076" cx="0" cy="0" r="1" gradientUnits="userSpaceOnUse" gradientTransform="translate(20.6756 5.27061) rotate(-152.21) scale(5.65141 25.1634)">
<stop stop-color="#3A3A3A"/>
<stop offset="1" stop-color="white"/>
</radialGradient>
<radialGradient id="paint7_radial_3002_1076" cx="0" cy="0" r="1" gradientUnits="userSpaceOnUse" gradientTransform="translate(13.6492 3.514) rotate(101.541) scale(13.1706 14.9088)">
<stop stop-color="white"/>
<stop offset="1" stop-color="#292929" stop-opacity="0.75"/>
</radialGradient>
<linearGradient id="paint8_linear_3002_1076" x1="22.0827" y1="1.39972" x2="8.31092" y2="16.8043" gradientUnits="userSpaceOnUse">
<stop stop-color="#696969"/>
<stop offset="0.269894" stop-color="#868685"/>
<stop offset="0.773602" stop-color="#BBB9B9"/>
</linearGradient>
<linearGradient id="paint9_linear_3002_1076" x1="18.6109" y1="7.70903" x2="10.6753" y2="18.8995" gradientUnits="userSpaceOnUse">
<stop stop-color="#8A8888"/>
<stop offset="0.270601" stop-color="#666565"/>
<stop offset="1" stop-color="#424141"/>
</linearGradient>
<radialGradient id="paint10_radial_3002_1076" cx="0" cy="0" r="1" gradientUnits="userSpaceOnUse" gradientTransform="translate(18.9189 8.51239) rotate(95.3041) scale(10.3634 7.73251)">
<stop stop-color="#898887"/>
<stop offset="1" stop-color="#646060" stop-opacity="0"/>
</radialGradient>
<linearGradient id="paint11_linear_3002_1076" x1="10.6768" y1="14.5765" x2="15.5604" y2="7.77785" gradientUnits="userSpaceOnUse">
<stop stop-color="#3B3B3B"/>
<stop offset="1" stop-color="#484848" stop-opacity="0"/>
</linearGradient>
<linearGradient id="paint12_linear_3002_1076" x1="10.7429" y1="14.1706" x2="15.4912" y2="7.77631" gradientUnits="userSpaceOnUse">
<stop stop-color="#DEDEDE"/>
<stop offset="1" stop-color="#999999"/>
</linearGradient>
</defs>
</svg>
